<svg width="14" height="18" viewBox="0 0 14 18" fill="none" xmlns="http://www.w3.org/2000/svg">
<path d="M9.999 10.022L13.25 10.022C13.662 10.022 14 10.357 14 10.774C14 10.962 13.929 11.149 13.794 11.292C12.109 13.067 9.102 16.237 7.725 17.688C7.536 17.888 7.273 18 7 18C6.726 18 6.464 17.888 6.275 17.688C4.898 16.237 1.89 13.067 0.207001 11.292C0.0710013 11.149 6.15281e-07 10.962 6.31717e-07 10.774C6.68172e-07 10.357 0.337001 10.022 0.750001 10.022L4.001 10.022L4.001 1.002C4.001 0.471 4.471 -8.33052e-07 5.001 -7.86718e-07L8.999 -4.37201e-07C9.529 -3.90867e-07 9.999 0.471 9.999 1.002L9.999 10.022ZM2.493 11.522L7 16.273L11.507 11.522L8.499 11.522L8.499 1.5L5.501 1.5L5.501 11.522L2.493 11.522Z" fill="black"/>
</svg>
