<svg width="1920" height="1064" viewBox="0 0 1920 1064" fill="none" xmlns="http://www.w3.org/2000/svg">
<path d="M1752.21 1041.73L1791.06 972.537L1901 953.159V952.537L1790.48 972.013L1790.24 972.046L1751.1 1041.73H1752.21Z" fill="#B5B6B6"/>
<path d="M1716.11 1041.73L1763.66 957.153L1901 932.931V932.309L1763.08 956.629L1762.79 956.694L1715 1041.73H1716.11Z" fill="#B5B6B6"/>
<path d="M1677.03 1041.73L1680.13 1041.18L1680.36 1041.14L1736.21 941.801L1901 912.703V912.081L1735.62 941.278L1735.33 941.31L1679.54 1040.68L1673.52 1041.73H1677.03Z" fill="#B5B6B6"/>
<path d="M1562.47 1041.73L1652.67 1025.82L1652.9 1025.76L1708.75 926.417L1885.81 895.191L1886.1 895.126L1901 868.613V866.616L1885.23 894.667L1708.17 925.894L1707.93 925.926L1652.09 1025.3L1558.91 1041.73H1562.47Z" fill="#B5B6B6"/>
<path d="M1448.15 1041.73V1041.67L1625.21 1010.44L1625.51 1010.41L1681.29 911.033L1858.36 879.807L1858.65 879.774L1901 804.393V802.396L1857.77 879.283L1680.71 910.51L1680.48 910.575L1624.63 1009.92L1447.57 1041.14L1447.33 1041.21L1447.04 1041.73H1448.15Z" fill="#B5B6B6"/>
<path d="M1412.05 1041.73L1420.7 1026.32L1597.76 995.056L1598.05 995.023L1653.9 895.649L1830.96 864.423L1831.19 864.39L1887.04 765.016L1901 762.561V761.939L1886.45 764.493L1886.16 764.558L1830.37 863.899L1653.31 895.126L1653.02 895.191L1597.17 994.533L1420.11 1025.79L1419.88 1025.82L1410.94 1041.73H1412.05Z" fill="#B5B6B6"/>
<path d="M1375.95 1041.73L1393.3 1010.93L1570.36 979.705L1570.59 979.639L1626.44 880.298L1803.5 849.039L1803.74 849.006L1859.58 749.665L1901 742.366V741.711L1859 749.141L1858.71 749.174L1802.92 848.515L1625.86 879.774L1625.56 879.807L1569.78 979.181L1392.72 1010.41L1392.42 1010.44L1374.84 1041.73H1375.95Z" fill="#B5B6B6"/>
<path d="M1339.91 1041.73L1365.84 995.547L1542.9 964.321L1543.2 964.256L1598.98 864.914L1776.05 833.688L1776.34 833.622L1832.13 734.281L1901 722.137V721.516L1831.54 733.757L1831.31 733.79L1775.46 833.164L1598.4 864.39L1598.17 864.423L1542.32 963.797L1365.26 995.024L1364.97 995.089L1338.8 1041.73H1339.91Z" fill="#B5B6B6"/>
<path d="M1303.8 1041.73L1338.39 980.163L1515.45 948.937L1515.74 948.904L1571.59 849.53L1748.59 818.304L1748.88 818.271L1804.73 718.897L1901 701.909V701.287L1804.14 718.373L1803.85 718.439L1748.01 817.78L1571 849.006L1570.71 849.072L1514.86 948.413L1337.8 979.672L1337.57 979.705L1302.69 1041.73H1303.8Z" fill="#B5B6B6"/>
<path d="M1267.76 1041.73L1310.99 964.812L1488.05 933.553L1488.29 933.52L1544.13 834.146L1721.19 802.92L1721.43 802.887L1777.27 703.513L1901 681.714V681.092L1776.69 702.989L1776.4 703.055L1720.61 802.396L1543.55 833.655L1543.26 833.688L1487.47 933.029L1310.41 964.288L1310.11 964.321L1266.59 1041.73H1267.76Z" fill="#B5B6B6"/>
<path d="M1231.66 1041.73L1283.53 949.428L1460.6 918.202L1460.83 918.136L1516.68 818.795L1693.74 787.569L1694.03 787.503L1749.82 688.162L1901 661.485V660.863L1749.23 687.638L1749 687.671L1693.15 787.045L1516.09 818.271L1515.86 818.304L1460.01 917.678L1282.95 948.904L1282.66 948.937L1230.55 1041.73H1231.66Z" fill="#B5B6B6"/>
<path d="M1153.09 1041.73L1200 1033.45L1200.23 1033.42L1256.08 934.044L1433.14 902.818L1433.43 902.785L1489.22 803.411L1666.28 772.185L1666.57 772.119L1722.36 672.778L1899.42 641.552L1899.72 641.519L1901 639.228V637.231L1898.84 641.028L1721.78 672.254L1721.54 672.287L1665.7 771.661L1488.64 802.887L1488.4 802.92L1432.56 902.294L1255.49 933.52L1255.26 933.586L1199.41 1032.93L1149.53 1041.73H1153.09Z" fill="#B5B6B6"/>
<path d="M1038.48 1041.73L1172.54 1018.07L1172.83 1018.03L1228.62 918.693L1405.68 887.434L1405.98 887.401L1461.82 788.027L1638.88 756.801L1639.12 756.768L1694.96 657.394L1871.97 626.168L1872.26 626.135L1901 575.008V573.011L1871.38 625.644L1694.38 656.87L1694.09 656.936L1638.3 756.277L1461.24 787.503L1460.95 787.569L1405.1 886.91L1228.04 918.169L1227.8 918.202L1171.96 1017.58L1034.91 1041.73H1038.48Z" fill="#B5B6B6"/>
<path d="M963.702 1041.73L968.083 1033.94L1145.09 1002.72L1145.38 1002.65L1201.23 903.309L1378.29 872.05L1378.52 872.017L1434.37 772.676L1611.43 741.417L1611.66 741.384L1667.51 642.042L1844.57 610.784L1844.8 610.751L1900.65 511.409L1901 511.344V510.722L1900.07 510.886L1899.77 510.918L1843.99 610.26L1666.92 641.519L1666.63 641.552L1610.84 740.893L1433.78 772.152L1433.49 772.185L1377.7 871.559L1200.64 902.785L1200.35 902.818L1144.5 1002.19L967.499 1033.42L967.207 1033.45L962.592 1041.73H963.702Z" fill="#B5B6B6"/>
<path d="M927.601 1041.73L940.628 1018.56L1117.69 987.332L1117.92 987.299L1173.77 887.925L1350.83 856.698L1351.06 856.633L1406.91 757.292L1583.97 726.065L1584.26 726L1640.05 626.658L1817.11 595.432L1817.41 595.367L1873.19 496.025L1901 491.116V490.494L1872.61 495.502L1872.38 495.534L1816.53 594.909L1639.47 626.135L1639.23 626.168L1583.39 725.542L1406.33 756.768L1406.09 756.801L1350.25 856.175L1173.18 887.401L1172.89 887.466L1117.1 986.808L940.043 1018.03L939.751 1018.1L926.491 1041.73H927.601Z" fill="#B5B6B6"/>
<path d="M891.499 1041.73L913.172 1003.17L1090.23 971.947L1090.53 971.915L1146.31 872.541L1323.37 841.314L1323.67 841.282L1379.45 741.908L1556.52 710.681L1556.81 710.616L1612.6 611.274L1789.66 580.048L1789.95 580.015L1845.74 480.641L1901 470.92V470.265L1845.15 480.118L1844.92 480.183L1789.07 579.525L1612.01 610.751L1611.78 610.816L1555.93 710.158L1378.87 741.384L1378.64 741.449L1322.79 840.791L1145.73 872.017L1145.5 872.082L1089.65 971.424L912.588 1002.65L912.354 1002.72L890.389 1041.73H891.499Z" fill="#B5B6B6"/>
<path d="M855.456 1041.73L885.716 987.822L1062.78 956.596L1063.07 956.531L1118.86 857.189L1295.98 825.93L1296.21 825.898L1352.06 726.524L1529.12 695.297L1529.35 695.265L1585.2 595.891L1762.26 564.664L1762.49 564.632L1818.34 465.257L1901 450.692V450.07L1817.76 464.734L1817.46 464.799L1761.68 564.141L1584.61 595.367L1584.32 595.432L1528.53 694.774L1351.47 726L1351.18 726.065L1295.33 825.407L1118.27 856.666L1118.04 856.698L1062.19 956.073L885.131 987.299L884.898 987.332L854.346 1041.73H855.456Z" fill="#B5B6B6"/>
<path d="M819.354 1041.73L858.318 972.439L1035.38 941.212L1035.61 941.147L1091.46 841.805L1268.52 810.579L1268.75 810.514L1324.6 711.172L1501.66 679.913L1501.9 679.881L1557.74 580.539L1734.8 549.313L1735.04 549.248L1790.88 449.906L1901 430.463V429.842L1790.3 449.382L1790.01 449.415L1734.22 548.789L1557.16 580.016L1556.87 580.048L1501.08 679.39L1324.02 710.649L1323.72 710.681L1267.94 810.055L1090.88 841.282L1090.58 841.315L1034.8 940.689L857.734 971.915L857.442 971.948L818.244 1041.73H819.354Z" fill="#B5B6B6"/>
<path d="M783.311 1041.73L830.862 957.055L1007.92 925.828L1008.16 925.796L1064 826.421L1241.07 795.195L1241.36 795.13L1297.15 695.788L1474.21 664.562L1474.5 664.497L1530.29 565.155L1707.35 533.929L1707.64 533.864L1763.43 434.522L1901 410.268V409.646L1762.84 433.998L1762.61 434.031L1706.76 533.405L1529.7 564.632L1529.47 564.664L1473.62 664.038L1296.56 695.265L1296.33 695.297L1240.48 794.672L1063.42 825.898L1063.13 825.963L1007.34 925.305L830.278 956.531L829.986 956.596L782.143 1041.73H783.311Z" fill="#B5B6B6"/>
<path d="M743.705 1041.73L747.326 1041.08L747.619 1041.04L803.407 941.67L980.468 910.444L980.76 910.412L1036.55 811.037L1213.61 779.811L1213.9 779.778L1269.75 680.404L1446.75 649.178L1447.04 649.145L1502.89 549.771L1679.89 518.545L1680.18 518.512L1735.97 419.138L1901 390.04V389.418L1735.39 418.614L1735.15 418.68L1679.31 518.021L1502.31 549.248L1502.01 549.313L1446.17 648.654L1269.16 679.881L1268.87 679.946L1213.03 779.287L1035.96 810.546L1035.73 810.579L979.884 909.921L802.822 941.147L802.589 941.212L746.742 1040.55L740.141 1041.73H743.705Z" fill="#B5B6B6"/>
<path d="M629.09 1041.73L719.87 1025.73L720.162 1025.66L776.009 926.319L953.012 895.093L953.304 895.027L1009.15 795.686L1186.21 764.427L1186.45 764.394L1242.29 665.02L1419.35 633.794L1419.59 633.761L1475.43 534.387L1652.49 503.161L1652.73 503.128L1708.57 403.787L1885.64 372.528L1885.87 372.495L1901 345.59V343.626L1885.05 372.004L1707.99 403.263L1707.7 403.296L1651.91 502.637L1474.85 533.896L1474.56 533.929L1418.77 633.27L1241.71 664.529L1241.42 664.562L1185.63 763.903L1008.57 795.162L1008.27 795.195L952.427 894.569L775.425 925.796L775.133 925.828L719.286 1025.2L625.585 1041.73H629.09Z" fill="#B5B6B6"/>
<path d="M515.295 1041.73L515.411 1041.57L692.473 1010.34L692.706 1010.31L748.553 910.935L925.614 879.709L925.848 879.676L981.694 780.302L1158.76 749.076L1158.99 749.01L1214.84 649.669L1391.9 618.443L1392.19 618.377L1447.98 519.036L1625.04 487.81L1625.27 487.744L1681.12 388.403L1858.18 357.177L1858.41 357.111L1901 281.402V279.406L1857.6 356.653L1680.53 387.879L1680.24 387.912L1624.45 487.286L1447.39 518.512L1447.16 518.545L1391.31 617.919L1214.25 649.145L1214.02 649.178L1158.17 748.552L981.11 779.778L980.818 779.811L925.03 879.185L747.969 910.412L747.677 910.444L691.889 1009.82L514.827 1041.04L514.535 1041.11L514.185 1041.73H515.295Z" fill="#B5B6B6"/>
<path d="M479.193 1041.73L487.955 1026.22L665.017 994.958L665.25 994.925L721.097 895.551L898.158 864.325L898.392 864.292L954.238 764.918L1131.3 733.692L1131.59 733.659L1187.38 634.285L1364.44 603.059L1364.73 602.993L1420.52 503.652L1597.58 472.426L1597.87 472.36L1653.66 373.019L1830.72 341.793L1831.02 341.76L1886.8 242.386L1901 239.898V239.276L1886.22 241.862L1885.99 241.928L1830.14 341.269L1653.08 372.495L1652.85 372.561L1597 471.902L1419.94 503.128L1419.7 503.161L1363.86 602.535L1186.8 633.761L1186.56 633.794L1130.72 733.168L953.654 764.394L953.421 764.46L897.574 863.801L720.513 895.027L720.279 895.093L664.433 994.434L487.371 1025.69L487.079 1025.73L478.083 1041.73H479.193Z" fill="#B5B6B6"/>
<path d="M443.15 1041.73L460.5 1010.83L637.561 979.574L637.853 979.541L693.641 880.2L870.703 848.941L870.995 848.908L926.783 749.567L1103.84 718.308L1104.14 718.275L1159.98 618.901L1337.04 587.675L1337.28 587.642L1393.12 488.268L1570.13 457.042L1570.42 457.009L1626.27 357.635L1803.27 326.409L1803.56 326.376L1859.41 227.002L1901 219.67V219.048L1858.82 226.478L1858.53 226.544L1802.68 325.885L1625.68 357.111L1625.39 357.177L1569.54 456.518L1392.54 487.744L1392.25 487.81L1336.46 587.151L1159.4 618.377L1159.11 618.443L1103.26 717.784L926.199 749.043L925.965 749.076L870.118 848.45L693.057 879.676L692.823 879.709L636.977 979.05L459.916 1010.31L459.682 1010.34L442.04 1041.73H443.15Z" fill="#B5B6B6"/>
<path d="M407.048 1041.73L433.044 995.449L610.105 964.223L610.397 964.157L666.244 864.816L843.247 833.59L843.539 833.524L899.385 734.183L1076.45 702.957L1076.68 702.891L1132.53 603.55L1309.59 572.291L1309.82 572.258L1365.67 472.917L1542.73 441.658L1542.96 441.625L1598.81 342.284L1775.87 311.057L1776.1 310.992L1831.95 211.651L1901 199.474V198.82L1831.37 211.127L1831.08 211.16L1775.29 310.534L1598.23 341.76L1597.93 341.793L1542.15 441.134L1365.08 472.393L1364.79 472.426L1309 571.767L1131.94 603.026L1131.65 603.059L1075.86 702.433L898.801 733.659L898.509 733.692L842.663 833.066L665.66 864.292L665.368 864.325L609.521 963.699L432.46 994.925L432.226 994.991L405.938 1041.73H407.048Z" fill="#B5B6B6"/>
<path d="M371.005 1041.73L405.646 980.065L582.708 948.839L582.941 948.806L638.788 849.432L815.849 818.206L816.083 818.173L871.929 718.799L1048.99 687.573L1049.28 687.507L1105.07 588.166L1282.13 556.939L1282.42 556.874L1338.21 457.533L1515.27 426.306L1515.57 426.241L1571.35 326.9L1748.42 295.673L1748.65 295.608L1804.5 196.266L1901 179.246V178.624L1803.91 195.743L1803.68 195.776L1747.83 295.15L1570.77 326.376L1570.54 326.409L1514.69 425.783L1337.63 457.009L1337.39 457.042L1281.55 556.416L1104.49 587.642L1104.25 587.675L1048.41 687.049L871.345 718.275L871.053 718.341L815.265 817.682L638.204 848.908L637.912 848.974L582.124 948.315L405.062 979.541L404.77 979.607L369.837 1041.73H371.005Z" fill="#B5B6B6"/>
<path d="M334.903 1041.73L378.19 964.714L555.252 933.455L555.544 933.422L611.332 834.048L788.393 802.822L788.627 802.789L844.473 703.415L1021.53 672.189L1021.83 672.156L1077.61 572.782L1254.68 541.555L1254.97 541.49L1310.76 442.149L1487.82 410.922L1488.11 410.89L1543.9 311.516L1720.96 280.289L1721.25 280.257L1777.04 180.882L1901 159.018V158.396L1776.46 180.359L1776.22 180.424L1720.37 279.766L1543.31 310.992L1543.08 311.057L1487.23 410.399L1310.17 441.625L1309.94 441.69L1254.09 541.032L1077.03 572.258L1076.8 572.324L1020.95 671.665L843.889 702.891L843.655 702.957L787.809 802.298L610.748 833.524L610.514 833.59L554.667 932.931L377.606 964.19L377.314 964.223L333.793 1041.73H334.903Z" fill="#B5B6B6"/>
<path d="M298.802 1041.73L350.734 949.33L527.796 918.104L528.088 918.038L583.876 818.697L760.937 787.47L761.229 787.405L817.017 688.064L994.079 656.805L994.371 656.772L1050.22 557.398L1227.28 526.172L1227.51 526.139L1283.36 426.765L1460.42 395.538L1460.65 395.506L1516.5 296.132L1693.5 264.905L1693.8 264.873L1749.64 165.498L1901 138.822V138.2L1749.06 164.975L1748.77 165.04L1692.92 264.382L1515.92 295.608L1515.62 295.673L1459.84 395.015L1282.77 426.241L1282.48 426.306L1226.69 525.648L1049.63 556.874L1049.34 556.939L993.495 656.281L816.433 687.54L816.2 687.573L760.353 786.947L583.292 818.173L583.058 818.206L527.212 917.58L350.15 948.806L349.917 948.839L297.692 1041.73H298.802Z" fill="#B5B6B6"/>
<path d="M219.764 1041.73L267.199 1033.35L267.491 1033.32L323.279 933.946L500.399 902.719L500.632 902.654L556.479 803.313L733.54 772.086L733.774 772.021L789.62 672.68L966.682 641.453L966.915 641.388L1022.76 542.047L1199.82 510.788L1200.06 510.755L1255.9 411.413L1432.96 380.187L1433.2 380.122L1489.04 280.78L1666.11 249.554L1666.34 249.489L1722.19 150.147L1899.25 118.921L1899.48 118.856L1901 116.204V114.208L1898.66 118.397L1721.6 149.624L1721.31 149.656L1665.52 249.03L1488.46 280.257L1488.17 280.289L1432.38 379.663L1255.32 410.89L1255.03 410.922L1199.24 510.264L1022.18 541.523L1021.89 541.555L966.097 640.93L789.036 672.156L788.744 672.189L732.956 771.563L555.894 802.789L555.602 802.822L499.814 902.196L322.695 933.422L322.461 933.487L266.614 1032.83L216.201 1041.73H219.764Z" fill="#B5B6B6"/>
<path d="M105.15 1041.73L239.742 1017.97L240.034 1017.94L295.881 918.562L472.942 887.336L473.176 887.303L529.022 787.929L706.084 756.702L706.317 756.67L762.164 657.296L939.225 626.069L939.517 626.004L995.306 526.662L1172.37 495.436L1172.66 495.371L1228.45 396.029L1405.51 364.803L1405.8 364.738L1461.59 265.396L1638.65 234.17L1638.94 234.105L1694.73 134.763L1871.79 103.537L1872.08 103.504L1901 51.9842V49.9875L1871.21 103.013L1694.15 134.24L1693.91 134.272L1638.07 233.646L1461 264.873L1460.77 264.905L1404.92 364.279L1227.86 395.506L1227.63 395.538L1171.78 494.913L994.721 526.139L994.488 526.172L938.641 625.546L761.58 656.772L761.288 656.837L705.5 756.179L528.438 787.405L528.146 787.47L472.358 886.812L295.297 918.038L295.005 918.104L239.158 1017.48L101.645 1041.73H105.15Z" fill="#B5B6B6"/>
<path d="M30.8443 1041.73L35.284 1033.84L212.345 1002.62L212.579 1002.55L268.425 903.21L445.487 871.951L445.779 871.919L501.567 772.545L678.628 741.318L678.92 741.286L734.708 641.944L911.77 610.685L912.062 610.653L967.908 511.278L1144.91 480.052L1145.2 480.019L1201.05 380.645L1378.05 349.419L1378.34 349.386L1434.19 250.012L1611.19 218.786L1611.49 218.753L1667.33 119.379L1844.34 88.153L1844.63 88.1202L1900.42 -11.2211L1901 -11.3193V-11.974L1899.83 -11.7449L1899.6 -11.7121L1843.75 87.6292L1666.69 118.855L1666.46 118.921L1610.61 218.262L1433.55 249.489L1433.32 249.554L1377.47 348.895L1200.47 380.122L1200.17 380.187L1144.33 479.528L967.324 510.755L967.032 510.82L911.186 610.162L734.124 641.421L733.891 641.453L678.044 740.795L500.983 772.054L500.749 772.086L444.903 871.428L267.841 902.687L267.608 902.719L211.761 1002.09L34.6998 1033.32L34.4077 1033.39L29.7344 1041.73H30.8443Z" fill="#B5B6B6"/>
<path d="M1865.89 -16L1816.35 72.278L1639.29 103.504L1639 103.537L1583.21 202.878L1406.15 234.137L1405.86 234.17L1350.07 333.511L1173.01 364.77L1172.72 364.803L1116.93 464.145L939.868 495.404L939.576 495.436L883.788 594.778L706.727 626.037L706.434 626.069L650.588 725.443L473.585 756.67L473.293 756.702L417.447 856.077L240.385 887.303L240.152 887.336L184.305 986.71L7.24368 1017.94L6.9516 1018L0 1030.41V1032.4L7.82785 1018.46L184.889 987.233L185.123 987.201L240.969 887.827L418.031 856.6L418.323 856.535L474.169 757.193L651.172 725.967L651.464 725.902L707.311 626.56L884.372 595.301L884.606 595.269L940.452 495.894L1117.51 464.668L1117.75 464.635L1173.59 365.261L1350.66 334.035L1350.89 334.002L1406.74 234.661L1583.8 203.402L1584.03 203.369L1639.88 104.028L1816.94 72.769L1817.17 72.7362L1867 -16H1865.89Z" fill="#B5B6B6"/>
<path d="M1829.85 -16L1788.9 56.894L1611.84 88.1202L1611.54 88.153L1555.76 187.527L1378.7 218.753L1378.4 218.786L1322.62 318.16L1145.55 349.386L1145.32 349.419L1089.47 448.793L912.412 480.02L912.179 480.052L856.332 579.426L679.271 610.653L678.979 610.685L623.191 710.06L446.129 741.286L445.837 741.318L390.049 840.693L212.988 871.919L212.696 871.984L156.849 971.326L0 999.017V999.639L157.433 971.849L157.725 971.817L213.572 872.443L390.633 841.216L390.867 841.184L446.713 741.809L623.775 710.583L624.008 710.55L679.855 611.176L856.916 579.95L857.15 579.885L912.996 480.543L1090.06 449.317L1090.35 449.252L1146.14 349.91L1323.2 318.684L1323.43 318.618L1379.28 219.277L1556.34 188.051L1556.57 187.985L1612.42 88.644L1789.48 57.4177L1789.72 57.3522L1830.96 -16H1829.85Z" fill="#B5B6B6"/>
<path d="M1793.75 -16L1761.44 41.51L1584.38 72.7362L1584.15 72.8017L1528.3 172.143L1351.24 203.369L1351.01 203.435L1295.16 302.776L1118.1 334.002L1117.86 334.035L1062.02 433.409L884.956 464.636L884.723 464.668L828.876 564.042L651.815 595.269L651.581 595.334L595.735 694.675L418.673 725.902L418.44 725.967L362.593 825.309L185.532 856.568L185.24 856.6L129.393 955.974L0 978.789V979.41L129.977 956.498L130.269 956.433L186.116 857.091L363.177 825.832L363.411 825.8L419.257 726.425L596.319 695.199L596.553 695.166L652.399 595.792L829.46 564.566L829.752 564.533L885.54 465.159L1062.6 433.933L1062.89 433.868L1118.68 334.526L1295.74 303.3L1296.04 303.234L1351.82 203.893L1528.88 172.667L1529.18 172.634L1584.97 73.26L1762.03 42.0337L1762.32 42.001L1794.86 -16H1793.75Z" fill="#B5B6B6"/>
<path d="M1757.7 -16L1733.99 26.126L1556.98 57.3522L1556.69 57.4177L1500.84 156.759L1323.84 187.985L1323.55 188.051L1267.7 287.392L1090.7 318.618L1090.41 318.684L1034.62 418.025L857.559 449.251L857.267 449.317L801.42 548.658L624.359 579.917L624.125 579.95L568.279 679.324L391.217 710.55L390.984 710.583L335.137 809.957L158.076 841.184L157.842 841.216L101.996 940.59L0 958.593V959.215L102.58 941.114L102.814 941.049L158.66 841.707L335.721 810.448L336.014 810.415L391.802 711.074L568.863 679.848L569.155 679.782L624.943 580.441L802.004 549.182L802.297 549.149L858.143 449.775L1035.2 418.549L1035.44 418.516L1091.28 319.142L1268.29 287.916L1268.58 287.883L1324.43 188.509L1501.43 157.283L1501.72 157.25L1557.57 57.8759L1734.57 26.6497L1734.86 26.617L1758.81 -16H1757.7Z" fill="#B5B6B6"/>
<path d="M1721.6 -16L1706.59 10.7747L1529.53 42.001L1529.24 42.0337L1473.45 141.408L1296.39 172.634L1296.09 172.667L1240.31 272.008L1063.24 303.267L1062.95 303.3L1007.16 402.641L830.103 433.9L829.811 433.933L774.023 533.307L596.961 564.533L596.669 564.566L540.823 663.94L363.82 695.166L363.528 695.199L307.681 794.573L130.62 825.799L130.386 825.865L74.5399 925.206L0 938.365V938.986L75.124 925.73L75.4161 925.697L131.204 826.323L308.266 795.097L308.558 795.031L364.404 695.69L541.407 664.464L541.699 664.398L597.546 565.057L774.607 533.798L774.841 533.765L830.687 434.424L1007.75 403.165L1007.98 403.132L1063.83 303.791L1240.89 272.532L1241.12 272.499L1296.97 173.158L1474.03 141.931L1474.27 141.866L1530.11 42.5247L1707.17 11.2984L1707.41 11.233L1722.71 -16H1721.6Z" fill="#B5B6B6"/>
<path d="M1685.5 -16L1679.13 -4.60929L1502.07 26.617L1501.84 26.6497L1445.99 126.024L1268.93 157.25L1268.7 157.283L1212.85 256.657L1035.79 287.883L1035.55 287.916L979.708 387.29L802.647 418.516L802.413 418.549L746.567 517.923L569.506 549.149L569.213 549.215L513.425 648.556L336.364 679.782L336.072 679.848L280.284 779.189L103.223 810.415L102.93 810.481L47.084 909.822L0 918.136V918.758L47.6681 910.346L47.9602 910.313L103.807 810.939L280.868 779.713L281.102 779.68L336.948 680.306L514.01 649.08L514.243 649.047L570.09 549.673L747.151 518.447L747.385 518.381L803.231 419.04L980.293 387.814L980.585 387.748L1036.37 288.407L1213.43 257.181L1213.73 257.115L1269.51 157.774L1446.58 126.547L1446.81 126.482L1502.66 27.1407L1679.72 -4.08558L1679.95 -4.15105L1686.67 -16H1685.5Z" fill="#B5B6B6"/>
<path d="M1629.07 -16L1474.62 11.233L1474.38 11.2984L1418.54 110.64L1241.47 141.866L1241.24 141.932L1185.39 241.273L1008.33 272.499L1008.1 272.565L952.252 371.906L775.191 403.132L774.957 403.198L719.111 502.539L542.05 533.765L541.816 533.831L485.969 633.172L308.908 664.398L308.674 664.464L252.828 763.805L75.7666 795.064L75.4745 795.097L19.6865 894.471L0 897.941V898.563L20.2706 894.995L20.5043 894.929L76.3508 795.588L253.412 764.329L253.704 764.296L309.492 664.922L486.554 633.696L486.787 633.663L542.634 534.289L719.695 503.063L719.987 503.03L775.775 403.656L952.837 372.43L953.129 372.364L1008.92 273.023L1185.98 241.797L1186.27 241.764L1242.06 142.39L1419.12 111.164L1419.41 111.131L1475.2 11.7567L1632.63 -16H1629.07Z" fill="#B5B6B6"/>
<path d="M1514.46 -16L1447.22 -4.15105L1446.93 -4.08558L1391.08 95.2558L1214.08 126.482L1213.78 126.548L1158 225.889L980.935 257.115L980.643 257.181L924.855 356.522L747.794 387.748L747.501 387.814L691.655 487.155L514.594 518.414L514.36 518.447L458.514 617.821L281.452 649.047L281.219 649.08L225.372 748.454L48.3107 779.68L48.077 779.713L0 865.241V867.238L48.8949 780.204L225.956 748.978L226.248 748.912L282.036 649.571L459.098 618.345L459.39 618.279L515.178 518.938L692.298 487.679L692.531 487.646L748.378 388.272L925.439 357.046L925.673 357.013L981.519 257.639L1158.58 226.413L1158.81 226.38L1214.66 127.006L1391.66 95.7795L1391.96 95.7468L1447.8 -3.62733L1518.02 -16H1514.46Z" fill="#B5B6B6"/>
<path d="M1417.54 -16L1363.68 79.9045L1186.62 111.131L1186.33 111.164L1130.54 210.538L953.479 241.764L953.187 241.797L897.399 341.138L720.338 372.397L720.046 372.43L664.258 471.804L487.196 503.03L486.904 503.063L431.058 602.437L254.055 633.663L253.763 633.696L197.975 733.07L20.8548 764.296L20.6211 764.362L0 801.054V803.018L21.439 764.82L198.559 733.594L198.792 733.528L254.639 634.187L431.7 602.961L431.934 602.895L487.78 503.554L664.842 472.328L665.075 472.262L720.922 372.921L897.983 341.662L898.217 341.629L954.063 242.288L1131.12 211.061L1131.36 210.996L1187.2 111.654L1364.27 80.4282L1364.5 80.3628L1418.65 -16H1417.54Z" fill="#B5B6B6"/>
<path d="M1381.44 -16L1336.23 64.5205L1159.16 95.7468L1158.93 95.7795L1103.08 195.154L926.023 226.38L925.79 226.413L869.943 325.787L692.882 357.013L692.648 357.046L636.802 456.42L459.74 487.646L459.448 487.712L403.66 587.053L226.599 618.279L226.307 618.345L170.519 717.686L0 747.767V748.389L171.103 718.21L171.337 718.177L227.183 618.803L404.244 587.577L404.478 587.544L460.325 488.17L637.386 456.944L637.678 456.878L693.466 357.537L870.527 326.31L870.82 326.245L926.607 226.904L1103.67 195.677L1103.96 195.612L1159.75 96.2705L1336.81 65.0442L1337.1 64.9788L1382.61 -16H1381.44Z" fill="#B5B6B6"/>
<path d="M1345.4 -16L1308.77 49.1365L1131.71 80.3628L1131.48 80.4282L1075.63 179.77L898.626 210.996L898.334 211.061L842.487 310.403L665.484 341.629L665.192 341.694L609.346 441.036L432.284 472.295L432.051 472.328L376.204 571.669L199.143 602.895L198.909 602.961L143.063 702.302L0 727.571V728.193L143.647 702.826L143.939 702.793L199.727 603.419L376.788 572.193L377.081 572.16L432.869 472.819L609.93 441.56L610.222 441.527L666.069 342.153L843.072 310.926L843.364 310.894L899.21 211.52L1076.21 180.293L1076.51 180.261L1132.29 80.8865L1309.35 49.6602L1309.65 49.6275L1346.51 -16H1345.4Z" fill="#B5B6B6"/>
<path d="M1309.3 -16L1281.37 33.7525L1104.31 65.0115L1104.02 65.0442L1048.23 164.386L871.17 195.612L870.878 195.677L815.09 295.019L638.028 326.278L637.736 326.31L581.948 425.652L404.887 456.911L404.595 456.944L348.748 556.318L171.745 587.544L171.453 587.577L115.607 686.951L0 707.343V707.965L116.191 687.474L116.483 687.409L172.33 588.068L349.333 556.841L349.625 556.776L405.471 457.435L582.532 426.176L582.766 426.143L638.613 326.769L815.674 295.542L815.908 295.51L871.754 196.136L1048.82 164.909L1049.05 164.877L1104.9 65.5352L1281.96 34.2762L1282.19 34.2435L1310.41 -16H1309.3Z" fill="#B5B6B6"/>
<path d="M1273.25 -16L1253.92 18.4012L1076.86 49.6275L1076.56 49.6602L1020.78 149.034L843.714 180.261L843.48 180.293L787.634 279.667L610.573 310.894L610.339 310.926L554.492 410.301L377.431 441.527L377.139 441.559L321.351 540.934L144.29 572.16L143.997 572.193L88.2094 671.567L0 687.114V687.736L88.7936 672.09L89.0272 672.025L144.874 572.684L321.935 541.457L322.169 541.425L378.015 442.05L555.077 410.824L555.31 410.759L611.157 311.417L788.218 280.191L788.51 280.126L844.298 180.784L1021.36 149.558L1021.59 149.493L1077.44 50.1512L1254.5 18.925L1254.73 18.8595L1274.36 -16H1273.25Z" fill="#B5B6B6"/>
<path d="M1237.15 -16L1226.46 3.01725L1049.4 34.2435L1049.17 34.309L993.319 133.65L816.258 164.877L816.025 164.909L760.178 264.283L583.117 295.51L582.883 295.542L527.037 394.917L349.975 426.143L349.741 426.208L293.895 525.55L116.834 556.776L116.6 556.841L60.7535 656.183L0 666.919V667.541L61.3377 656.706L61.5713 656.674L117.418 557.3L294.479 526.073L294.713 526.041L350.559 426.667L527.621 395.44L527.913 395.408L583.701 296.033L760.762 264.807L761.054 264.742L816.842 165.4L993.904 134.174L994.196 134.141L1049.98 34.7672L1227.05 3.54096L1227.34 3.50823L1238.26 -16H1237.15Z" fill="#B5B6B6"/>
<path d="M1201.05 -16L1199.01 -12.3668L1022 18.8595L1021.71 18.925L965.864 118.266L788.861 149.493L788.569 149.558L732.781 248.899L555.719 280.126L555.427 280.191L499.581 379.533L322.519 410.792L322.286 410.824L266.439 510.198L89.3777 541.425L89.1441 541.457L33.2976 640.799L0 646.691V647.312L33.8818 641.322L34.1738 641.29L89.9619 541.948L267.023 510.689L267.315 510.657L323.103 411.315L500.165 380.056L500.457 380.024L556.303 280.649L733.365 249.423L733.598 249.39L789.445 150.016L966.448 118.79L966.74 118.757L1022.59 19.3832L1199.59 -11.843L1199.88 -11.8758L1202.22 -16H1201.05Z" fill="#B5B6B6"/>
<path d="M1105.07 -16L994.546 3.50823L994.254 3.54096L938.466 102.882L761.405 134.141L761.113 134.174L705.325 233.515L528.263 264.774L527.971 264.807L472.183 364.181L295.122 395.408L294.83 395.44L238.983 494.814L61.9802 526.041L61.6882 526.073L5.84168 625.448L0 626.462V627.084L6.42585 625.971L6.71793 625.906L62.5644 526.564L239.567 495.338L239.859 495.273L295.706 395.931L472.767 364.672L473.001 364.64L528.847 265.298L705.909 234.039L706.142 234.006L761.989 134.665L939.05 103.406L939.284 103.373L995.13 4.03194L1108.63 -16H1105.07Z" fill="#B5B6B6"/>
<path d="M990.457 -16L967.09 -11.8758L966.857 -11.843L911.01 87.5311L733.949 118.757L733.715 118.79L677.869 218.164L500.807 249.39L500.574 249.423L444.727 348.797L267.666 380.024L267.374 380.089L211.586 479.43L34.5243 510.657L34.2323 510.722L0 571.669V573.666L35.1085 511.18L212.17 479.954L212.404 479.921L268.25 380.547L445.311 349.321L445.545 349.256L501.392 249.914L678.453 218.688L678.745 218.622L734.533 119.281L911.594 88.0548L911.887 87.9893L967.675 -11.3521L994.021 -16H990.457Z" fill="#B5B6B6"/>
<path d="M933.092 -16L883.554 72.1471L706.493 103.373L706.259 103.439L650.413 202.78L473.351 234.006L473.118 234.072L417.271 333.413L240.21 364.639L239.976 364.705L184.13 464.046L7.06843 495.273L6.83477 495.338L0 507.449V509.445L7.6526 495.796L184.714 464.57L185.006 464.537L240.794 365.163L417.855 333.937L418.148 333.904L473.936 234.53L650.997 203.304L651.289 203.271L707.077 103.897L884.139 72.6708L884.431 72.638L934.202 -16H933.092Z" fill="#B5B6B6"/>
<path d="M896.99 -16L856.157 56.7631L679.095 87.9893L678.803 88.0548L623.015 187.396L445.954 218.622L445.662 218.688L389.815 318.029L212.754 349.288L212.52 349.321L156.674 448.695L0 476.321V476.943L157.258 449.219L157.55 449.153L213.338 349.812L390.458 318.553L390.692 318.52L446.538 219.146L623.599 187.92L623.833 187.887L679.68 88.513L856.741 57.2868L856.975 57.254L898.159 -16H896.99Z" fill="#B5B6B6"/>
<path d="M860.947 -16L828.701 41.4118L651.64 72.638L651.347 72.6708L595.559 172.012L418.498 203.271L418.206 203.304L362.418 302.678L185.357 333.904L185.064 333.937L129.218 433.311L0 456.092V456.714L129.861 433.835L130.094 433.769L185.941 334.428L363.002 303.202L363.236 303.136L419.082 203.795L596.144 172.536L596.377 172.503L652.224 73.1617L829.285 41.9355L829.519 41.87L862.057 -16H860.947Z" fill="#B5B6B6"/>
<path d="M824.845 -16L801.245 26.0278L624.184 57.254L623.95 57.2868L568.103 156.661L391.042 187.887L390.808 187.92L334.962 287.294L157.901 318.52L157.609 318.586L101.821 417.927L0 435.897V436.519L102.405 418.451L102.638 418.418L158.485 319.044L335.546 287.818L335.838 287.752L391.626 188.411L568.688 157.185L568.98 157.119L624.768 57.7777L801.829 26.5515L802.121 26.486L825.955 -16H824.845Z" fill="#B5B6B6"/>
<path d="M788.802 -16L773.789 10.6438L596.786 41.87L596.494 41.9355L540.648 141.277L363.645 172.503L363.353 172.569L307.506 271.91L130.445 303.169L130.211 303.202L74.3646 402.543L0 415.669V416.29L74.9488 403.067L75.2409 403.034L131.029 303.66L308.09 272.434L308.382 272.401L364.229 173.027L541.232 141.801L541.524 141.768L597.37 42.3937L774.373 11.1675L774.665 11.1348L789.912 -16H788.802Z" fill="#B5B6B6"/>
<path d="M752.701 -16L746.392 -4.74022L569.33 26.5188L569.038 26.5515L513.25 125.893L336.189 157.152L335.897 157.185L280.109 256.526L103.047 287.785L102.755 287.818L46.9087 387.192L0 395.473V396.095L47.4929 387.715L47.785 387.65L103.631 288.309L280.693 257.05L280.926 257.017L336.773 157.643L513.834 126.417L514.068 126.384L569.914 27.0097L746.976 -4.21651L747.209 -4.24924L753.81 -16H752.701Z" fill="#B5B6B6"/>
<path d="M695.686 -16L541.874 11.1348L541.641 11.1675L485.794 110.542L308.733 141.768L308.499 141.801L252.653 241.175L75.5913 272.401L75.2993 272.434L19.5112 371.808L0 375.245V375.867L20.0954 372.331L20.3291 372.299L76.1755 272.925L253.237 241.698L253.471 241.633L309.317 142.292L486.378 111.065L486.67 111L542.459 11.6585L699.249 -16H695.686Z" fill="#B5B6B6"/>
<path d="M581.072 -16L514.418 -4.24924L514.185 -4.21651L458.338 95.1576L281.277 126.384L281.043 126.417L225.197 225.791L48.1355 257.017L47.9018 257.082L0 342.284V344.28L48.7196 257.541L225.781 226.314L226.073 226.282L281.861 126.908L458.922 95.6813L459.215 95.6158L515.003 -3.72553L584.635 -16H581.072Z" fill="#B5B6B6"/>
<path d="M484.743 -16L430.941 79.7736L253.879 111L253.587 111.065L197.741 210.407L20.6796 241.666L20.4459 241.698L0 278.064V280.06L21.2637 242.189L198.325 210.93L198.617 210.898L254.464 111.524L431.525 80.2973L431.759 80.2646L485.853 -16H484.743Z" fill="#B5B6B6"/>
<path d="M448.641 -16L403.485 64.3896L226.424 95.6486L226.131 95.6813L170.343 195.055L0 225.103V225.725L170.928 195.546L171.161 195.514L227.008 96.1723L404.069 64.9133L404.303 64.8806L449.751 -16H448.641Z" fill="#B5B6B6"/>
<path d="M412.539 -16L376.029 49.0383L198.968 80.2646L198.734 80.2973L142.888 179.671L0 204.875V205.497L143.472 180.195L143.705 180.13L199.552 80.7883L376.613 49.562L376.905 49.4966L413.708 -16H412.539Z" fill="#B5B6B6"/>
<path d="M376.496 -16L348.573 33.6543L171.512 64.8806L171.278 64.946L115.432 164.287L0 184.647V185.269L116.016 164.811L116.308 164.778L172.096 65.4043L349.157 34.178L349.449 34.1126L377.606 -16H376.496Z" fill="#B5B6B6"/>
<path d="M340.395 -16L321.176 18.2703L144.114 49.4966L143.822 49.562L87.9757 148.903L0 164.451V165.073L88.5599 149.427L88.852 149.394L144.698 50.0203L321.76 18.794L321.993 18.7613L341.505 -16H340.395Z" fill="#B5B6B6"/>
<path d="M304.352 -16L293.72 2.88632L116.658 34.1453L116.366 34.178L60.5782 133.552L0 144.223V144.845L61.1624 134.076L61.3961 134.01L117.243 34.669L294.304 3.41003L294.538 3.3773L305.462 -16H304.352Z" fill="#B5B6B6"/>
<path d="M268.25 -16L266.264 -12.465L89.2025 18.7613L88.9688 18.794L33.1223 118.168L0 123.994V124.649L33.7065 118.692L33.9986 118.626L89.7866 19.285L266.848 -11.9412L267.14 -12.0067L269.36 -16H268.25Z" fill="#B5B6B6"/>
</svg>
