<svg width="18" height="18" viewBox="0 0 18 18" fill="none" xmlns="http://www.w3.org/2000/svg">
<path d="M9 0.875C7.39303 0.875 5.82214 1.35152 4.486 2.24431C3.14985 3.1371 2.10844 4.40605 1.49348 5.8907C0.87852 7.37535 0.717618 9.00901 1.03112 10.5851C1.34463 12.1612 2.11846 13.6089 3.25476 14.7452C4.39106 15.8815 5.8388 16.6554 7.41489 16.9689C8.99099 17.2824 10.6247 17.1215 12.1093 16.5065C13.594 15.8916 14.8629 14.8502 15.7557 13.514C16.6485 12.1779 17.125 10.607 17.125 9C17.1227 6.84581 16.266 4.78051 14.7427 3.25727C13.2195 1.73403 11.1542 0.877275 9 0.875ZM9 15.875C7.64026 15.875 6.31105 15.4718 5.18046 14.7164C4.04987 13.9609 3.16868 12.8872 2.64833 11.6309C2.12798 10.3747 1.99183 8.99237 2.2571 7.65875C2.52238 6.32513 3.17716 5.10013 4.13864 4.13864C5.10013 3.17715 6.32514 2.52237 7.65876 2.2571C8.99238 1.99183 10.3747 2.12798 11.631 2.64833C12.8872 3.16868 13.9609 4.04987 14.7164 5.18045C15.4718 6.31104 15.875 7.64025 15.875 9C15.8729 10.8227 15.1479 12.5702 13.8591 13.8591C12.5702 15.1479 10.8227 15.8729 9 15.875ZM11.3172 8.55781C11.3753 8.61586 11.4214 8.68479 11.4529 8.76066C11.4843 8.83654 11.5005 8.91787 11.5005 9C11.5005 9.08213 11.4843 9.16346 11.4529 9.23934C11.4214 9.31521 11.3753 9.38414 11.3172 9.44219L8.19219 12.5672C8.13412 12.6253 8.06518 12.6713 7.98931 12.7027C7.91344 12.7342 7.83213 12.7503 7.75 12.7503C7.66788 12.7503 7.58656 12.7342 7.51069 12.7027C7.43482 12.6713 7.36588 12.6253 7.30782 12.5672C7.24975 12.5091 7.20368 12.4402 7.17226 12.3643C7.14083 12.2884 7.12466 12.2071 7.12466 12.125C7.12466 12.0429 7.14083 11.9616 7.17226 11.8857C7.20368 11.8098 7.24975 11.7409 7.30782 11.6828L9.99141 9L7.30782 6.31719C7.19054 6.19991 7.12466 6.04085 7.12466 5.875C7.12466 5.70915 7.19054 5.55009 7.30782 5.43281C7.42509 5.31554 7.58415 5.24965 7.75 5.24965C7.91586 5.24965 8.07492 5.31554 8.19219 5.43281L11.3172 8.55781Z" fill="white"/>
</svg>
